<svg xmlns="http://www.w3.org/2000/svg" fill="none" viewBox="0 0 80 80">
<g filter="url(#filter0_d_198_1162)">
<rect width="80" height="80" rx="16" fill="#262626"/>
<path d="M17.2884 26.8182H24.5497V54.2955C24.5497 56.3182 24.152 57.9545 23.3565 59.2045C22.5611 60.4545 21.419 61.3693 19.9304 61.9489C18.4531 62.5284 16.6861 62.8182 14.6293 62.8182C14.3793 62.8182 14.1406 62.8125 13.9134 62.8011C13.6747 62.8011 13.4247 62.7955 13.1634 62.7841V57.108C13.3565 57.1193 13.527 57.125 13.6747 57.125C13.8111 57.1364 13.9588 57.142 14.1179 57.142C15.2884 57.142 16.1065 56.892 16.5724 56.392C17.0497 55.9034 17.2884 55.1648 17.2884 54.1761V26.8182ZM20.902 23.4432C19.8338 23.4432 18.9134 23.0852 18.1406 22.3693C17.3679 21.642 16.9815 20.7727 16.9815 19.7614C16.9815 18.7614 17.3679 17.9034 18.1406 17.1875C18.9134 16.4602 19.8338 16.0966 20.902 16.0966C21.9929 16.0966 22.919 16.4602 23.6804 17.1875C24.4531 17.9034 24.8395 18.7614 24.8395 19.7614C24.8395 20.7727 24.4531 21.642 23.6804 22.3693C22.919 23.0852 21.9929 23.4432 20.902 23.4432ZM36.8324 53.4943C35.1619 53.4943 33.6733 53.2045 32.3665 52.625C31.0597 52.0341 30.0256 51.1648 29.2642 50.017C28.5142 48.858 28.1392 47.4148 28.1392 45.6875C28.1392 44.233 28.4063 43.0114 28.9403 42.0227C29.4744 41.0341 30.2017 40.2386 31.1222 39.6364C32.0426 39.0341 33.0881 38.5795 34.2585 38.2727C35.4403 37.9659 36.679 37.75 37.9744 37.625C39.4972 37.4659 40.7244 37.3182 41.6562 37.1818C42.5881 37.0341 43.2642 36.8182 43.6847 36.5341C44.1051 36.25 44.3153 35.8295 44.3153 35.2727V35.1705C44.3153 34.0909 43.9744 33.2557 43.2926 32.6648C42.6222 32.0739 41.6676 31.7784 40.429 31.7784C39.1222 31.7784 38.0824 32.0682 37.3097 32.6477C36.5369 33.2159 36.0256 33.9318 35.7756 34.7955L29.0597 34.25C29.4006 32.6591 30.071 31.2841 31.071 30.125C32.071 28.9545 33.3608 28.0568 34.9403 27.4318C36.5313 26.7955 38.3722 26.4773 40.4631 26.4773C41.9176 26.4773 43.3097 26.6477 44.6392 26.9886C45.9801 27.3295 47.1676 27.858 48.2017 28.5739C49.2472 29.2898 50.071 30.2102 50.6733 31.3352C51.2756 32.4489 51.5767 33.7841 51.5767 35.3409V53H44.6903V49.3693H44.4858C44.0653 50.1875 43.5028 50.9091 42.7983 51.5341C42.0938 52.1477 41.2472 52.6307 40.2585 52.983C39.2699 53.3239 38.1278 53.4943 36.8324 53.4943ZM38.9119 48.483C39.9801 48.483 40.9233 48.2727 41.7415 47.8523C42.5597 47.4205 43.2017 46.8409 43.6676 46.1136C44.1335 45.3864 44.3665 44.5625 44.3665 43.642V40.8636C44.1392 41.0114 43.8267 41.1477 43.429 41.2727C43.0426 41.3864 42.6051 41.4943 42.1165 41.5966C41.6278 41.6875 41.1392 41.7727 40.6506 41.8523C40.1619 41.9205 39.7188 41.983 39.321 42.0398C38.4688 42.1648 37.7244 42.3636 37.0881 42.6364C36.4517 42.9091 35.9574 43.2784 35.6051 43.7443C35.2528 44.1989 35.0767 44.767 35.0767 45.4489C35.0767 46.4375 35.4347 47.1932 36.1506 47.7159C36.8778 48.2273 37.7983 48.483 38.9119 48.483Z" fill="#FAFAFA"/>
<path d="M60.4545 53.4432C59.3295 53.4432 58.3636 53.0455 57.5568 52.25C56.7614 51.4432 56.3636 50.4773 56.3636 49.3523C56.3636 48.2386 56.7614 47.2841 57.5568 46.4886C58.3636 45.6932 59.3295 45.2955 60.4545 45.2955C61.5455 45.2955 62.5 45.6932 63.3182 46.4886C64.1364 47.2841 64.5455 48.2386 64.5455 49.3523C64.5455 50.1023 64.3523 50.7898 63.9659 51.4148C63.5909 52.0284 63.0966 52.5227 62.483 52.8977C61.8693 53.2614 61.1932 53.4432 60.4545 53.4432Z" fill="#7C3AED"/>
</g>
<defs>
<filter id="filter0_d_198_1162" x="0" y="0" width="88" height="88" filterUnits="userSpaceOnUse" color-interpolation-filters="sRGB">
<feFlood flood-opacity="0" result="BackgroundImageFix"/>
<feColorMatrix in="SourceAlpha" type="matrix" values="0 0 0 0 0 0 0 0 0 0 0 0 0 0 0 0 0 0 127 0" result="hardAlpha"/>
<feOffset dx="4" dy="4"/>
<feGaussianBlur stdDeviation="2"/>
<feComposite in2="hardAlpha" operator="out"/>
<feColorMatrix type="matrix" values="0 0 0 0 0 0 0 0 0 0 0 0 0 0 0 0 0 0 0.25 0"/>
<feBlend mode="normal" in2="BackgroundImageFix" result="effect1_dropShadow_198_1162"/>
<feBlend mode="normal" in="SourceGraphic" in2="effect1_dropShadow_198_1162" result="shape"/>
</filter>
</defs>
</svg>