<svg xmlns="http://www.w3.org/2000/svg" fill="none" viewBox="0.77 8.1 51.38 46.72">
<path d="M4.89773 18.8182H12.1591V46.2955C12.1591 48.3182 11.7614 49.9545 10.9659 51.2045C10.1705 52.4545 9.02841 53.3693 7.53977 53.9489C6.0625 54.5284 4.29545 54.8182 2.23864 54.8182C1.98864 54.8182 1.75 54.8125 1.52273 54.8011C1.28409 54.8011 1.03409 54.7955 0.772727 54.7841V49.108C0.965909 49.1193 1.13636 49.125 1.28409 49.125C1.42045 49.1364 1.56818 49.142 1.72727 49.142C2.89773 49.142 3.71591 48.892 4.18182 48.392C4.65909 47.9034 4.89773 47.1648 4.89773 46.1761V18.8182ZM8.51136 15.4432C7.44318 15.4432 6.52273 15.0852 5.75 14.3693C4.97727 13.642 4.59091 12.7727 4.59091 11.7614C4.59091 10.7614 4.97727 9.90341 5.75 9.1875C6.52273 8.46023 7.44318 8.09659 8.51136 8.09659C9.60227 8.09659 10.5284 8.46023 11.2898 9.1875C12.0625 9.90341 12.4489 10.7614 12.4489 11.7614C12.4489 12.7727 12.0625 13.642 11.2898 14.3693C10.5284 15.0852 9.60227 15.4432 8.51136 15.4432ZM24.4418 45.4943C22.7713 45.4943 21.2827 45.2045 19.9759 44.625C18.669 44.0341 17.6349 43.1648 16.8736 42.017C16.1236 40.858 15.7486 39.4148 15.7486 37.6875C15.7486 36.233 16.0156 35.0114 16.5497 34.0227C17.0838 33.0341 17.8111 32.2386 18.7315 31.6364C19.652 31.0341 20.6974 30.5795 21.8679 30.2727C23.0497 29.9659 24.2884 29.75 25.5838 29.625C27.1065 29.4659 28.3338 29.3182 29.2656 29.1818C30.1974 29.0341 30.8736 28.8182 31.294 28.5341C31.7145 28.25 31.9247 27.8295 31.9247 27.2727V27.1705C31.9247 26.0909 31.5838 25.2557 30.902 24.6648C30.2315 24.0739 29.277 23.7784 28.0384 23.7784C26.7315 23.7784 25.6918 24.0682 24.919 24.6477C24.1463 25.2159 23.6349 25.9318 23.3849 26.7955L16.669 26.25C17.0099 24.6591 17.6804 23.2841 18.6804 22.125C19.6804 20.9545 20.9702 20.0568 22.5497 19.4318C24.1406 18.7955 25.9815 18.4773 28.0724 18.4773C29.527 18.4773 30.919 18.6477 32.2486 18.9886C33.5895 19.3295 34.777 19.858 35.8111 20.5739C36.8565 21.2898 37.6804 22.2102 38.2827 23.3352C38.8849 24.4489 39.1861 25.7841 39.1861 27.3409V45H32.2997V41.3693H32.0952C31.6747 42.1875 31.1122 42.9091 30.4077 43.5341C29.7031 44.1477 28.8565 44.6307 27.8679 44.983C26.8793 45.3239 25.7372 45.4943 24.4418 45.4943ZM26.5213 40.483C27.5895 40.483 28.5327 40.2727 29.3509 39.8523C30.169 39.4205 30.8111 38.8409 31.277 38.1136C31.7429 37.3864 31.9759 36.5625 31.9759 35.642V32.8636C31.7486 33.0114 31.4361 33.1477 31.0384 33.2727C30.652 33.3864 30.2145 33.4943 29.7259 33.5966C29.2372 33.6875 28.7486 33.7727 28.2599 33.8523C27.7713 33.9205 27.3281 33.983 26.9304 34.0398C26.0781 34.1648 25.3338 34.3636 24.6974 34.6364C24.0611 34.9091 23.5668 35.2784 23.2145 35.7443C22.8622 36.1989 22.6861 36.767 22.6861 37.4489C22.6861 38.4375 23.044 39.1932 23.7599 39.7159C24.4872 40.2273 25.4077 40.483 26.5213 40.483Z" fill="white"/>
<path d="M48.0639 45.4432C46.9389 45.4432 45.973 45.0455 45.1662 44.25C44.3707 43.4432 43.973 42.4773 43.973 41.3523C43.973 40.2386 44.3707 39.2841 45.1662 38.4886C45.973 37.6932 46.9389 37.2955 48.0639 37.2955C49.1548 37.2955 50.1094 37.6932 50.9276 38.4886C51.7457 39.2841 52.1548 40.2386 52.1548 41.3523C52.1548 42.1023 51.9616 42.7898 51.5753 43.4148C51.2003 44.0284 50.706 44.5227 50.0923 44.8977C49.4787 45.2614 48.8026 45.4432 48.0639 45.4432Z" fill="#7C3AED"/>
</svg>